<svg id="svg" fill="#F4F4F4" stroke="#F4F4F4" width="200px" height="200px" version="1.1" viewBox="144 144 512 512" xmlns="http://www.w3.org/2000/svg">
    <g id="IconSvg_bgCarrier" stroke-width="0"></g>
    <g id="IconSvg_tracerCarrier" stroke-linecap="round" stroke-linejoin="round" stroke="#CCCCCC"></g>
     <g id="IconSvg_iconCarrier">
      <g xmlns="http://www.w3.org/2000/svg">
  <path d="m328.41 267.37c-0.90625 0.32812-1.7891 0.67969-2.6719 1.0312-0.023437 0.023437-0.074219 0.023437-0.125 0.050781 0.023437 0 0.050781-0.023437 0.050781-0.023437 0.88281-0.35156 1.7617-0.70703 2.6719-1.0312 1.9414-0.70703 3.8789-1.2578 5.8438-1.7617 0.42969-0.10156 0.83203-0.30078 1.2109-0.52734-0.35156 0.22656-0.73047 0.40234-1.1328 0.50391-1.9922 0.49609-3.9336 1.0781-5.8477 1.7578z"></path>
  <path d="m328.94 401.94c-2.0664-0.48047-4.1328-1.0312-6.1445-1.6641 2.0117 0.63281 4.0781 1.1875 6.1445 1.6641z"></path>
  <path d="m323.55 269.44c0.40234-0.20312 0.83203-0.37891 1.2344-0.57812h0.023438c-0.40234 0.20312-0.80469 0.37891-1.1836 0.57812-0.050782-0.027344-0.074219 0-0.074219 0z"></path>
  <path d="m308.05 394.18c-0.93359-0.50391-1.8906-1.0078-2.7969-1.5352 0.90625 0.52734 1.8633 1.0547 2.7969 1.5352z"></path>
  <path d="m323.52 269.44c-1.8633 0.90625-3.6523 1.9141-5.4141 2.9961 1.7617-1.082 3.5508-2.0898 5.4141-2.9961z"></path>
  <path d="m299.82 389.24c-1.3359-0.90625-2.6445-1.8398-3.9062-2.8203 1.2617 0.98047 2.5703 1.9375 3.9062 2.8203z"></path>
  <path d="m318.79 398.94c-0.32812-0.125-0.62891-0.22656-0.95703-0.35156 0.32812 0.097656 0.65234 0.22656 0.95703 0.35156z"></path>
  <path d="m312.81 396.5c-1.6133-0.73047-3.1992-1.4844-4.7617-2.3164 1.5625 0.83203 3.1523 1.5859 4.7617 2.3164z"></path>
  <path d="m322.79 400.28c-0.67969-0.20312-1.3594-0.42969-2.0391-0.65625 0.67969 0.22656 1.3594 0.45312 2.0391 0.65625z"></path>
  <path d="m312.59 276.24c-1.9141 1.0312-4.4844-0.17578-5.543-1.8398-0.57812-0.90625-0.73047-2.3164-0.45312-3.3516 0.32812-1.2109 1.0586-1.8906 1.9883-2.6211 5.1406-3.9531 10.934-7.0781 17.027-9.2969-6.1211 2.1914-11.941 5.3398-17.105 9.3203-0.93359 0.73047-1.6875 1.4102-1.9883 2.6211-0.30078 1.0312-0.15234 2.418 0.45312 3.3516 1.0898 1.6641 3.707 2.8984 5.6211 1.8164z"></path>
  <path d="m324.91 268.78s-0.023438 0-0.023438 0.023438c-0.003906-0.023438 0.023438-0.023438 0.023438-0.023438z"></path>
  <path d="m282.89 279.86c-16.574 26.953-14.156 60.938 4.5078 86.051-18.664-25.113-21.059-59.094-4.5078-86.051z"></path>
  <path d="m378.39 241.07c-0.023438 0-0.023438-0.023437-0.050781-0.023437-9.7227-3.8789-19.977-5.7695-30.203-5.793 10.227 0.050782 20.48 1.9414 30.203 5.793 0.023437 0 0.050781 0 0.050781 0.023437z"></path>
  <path d="m357.96 265.08c22.598 4.6367 39.953 22.32 44.211 44.965 0.45312 2.3164 3.2227 3.6523 5.3906 3.0469 0.95703-0.27734 1.6875-0.80469 2.2148-1.5117-0.52734 0.67969-1.2578 1.2109-2.2148 1.4609-2.1406 0.57813-4.9375-0.73047-5.3906-3.0469-4.2578-22.672-21.637-40.328-44.211-44.965-2.2148-0.45312-3.1758-2.0898-3.1484-3.8281-0.027344 1.7617 0.90625 3.4258 3.1484 3.8789z"></path>
  <path d="m380.55 387.78c28.539-14.055 45.52-44.812 42.168-76.453 3.3516 31.641-13.652 62.422-42.168 76.453z"></path>
  <path d="m283.72 264.1v0c-0.22656 0.25-0.40234 0.48047-0.60547 0.73047 0.20312-0.22656 0.40625-0.48047 0.60547-0.73047v0z"></path>
  <path d="m454.99 315.64c1.3867 41.918-22.168 81.82-60.105 100.64-15.039 7.457-31.109 10.957-47.004 10.883 15.922 0.074219 31.992-3.4258 47.055-10.883 37.887-18.82 61.441-58.723 60.055-100.64z"></path>
  <path d="m335.71 264.88c-0.023438 0.023438-0.023438 0.023438-0.050782 0.023438 0.027344 0.003906 0.050782 0.003906 0.050782-0.023438z"></path>
  <path d="m325.03 268.73c-0.023438 0.023437-0.074219 0.023437-0.10156 0.050781 0.027343-0.023438 0.050781-0.050781 0.10156-0.050781z"></path>
  <path d="m280.17 370.78c-11.184-14.863-16.828-32.621-17.004-50.383 0.17578 17.785 5.8203 35.547 17.004 50.383z"></path>
  <path d="m429.2 298.78c1.7148 6.5508 2.6211 13.324 2.6719 20.227-0.027344-6.8984-0.96094-13.676-2.6719-20.227z"></path>
  <path d="m448.36 464.46c-0.023437 2.7969 1.1094 5.543 2.7188 8.1602-1.6094-2.6172-2.7422-5.3633-2.7188-8.1602z"></path>
  <path d="m370.85 214.57c8.9688 2.0156 17.508 5.1641 25.492 9.2969-7.9844-4.1328-16.523-7.2812-25.492-9.2969-9.7227-2.1914-19.598-2.9219-29.32-2.3438 9.7227-0.60156 19.574 0.15234 29.32 2.3438z"></path>
  <path d="m544.11 555.9c0.48047 0.62891 0.95703 1.2578 1.4375 1.8906-0.48047-0.63281-0.95703-1.2617-1.4375-1.8906z"></path>
  <path d="m536.98 546.66c0.22656 0.30078 0.48047 0.60547 0.70703 0.90625-0.22656-0.30078-0.48047-0.60156-0.70703-0.90625z"></path>
  <path d="m346.37 404.05c-0.52734 0-1.082-0.023438-1.6133-0.050782 0.53125 0.023438 1.0859 0.050782 1.6133 0.050782z"></path>
  <path d="m476.55 468.39c-1.2852 0.074219-2.6445 0.30078-4.0547 0.67969-7.332 1.9414-11.992 7.2539-13.754 13.504 1.7617-6.2227 6.4492-11.562 13.754-13.504 1.4102-0.37891 2.7734-0.57812 4.0547-0.67969z"></path>
  <path d="m553.13 585.3c0 0.023438-0.023437 0.023438-0.023437 0.023438-0.85547 0.57812-1.6367 0.95703-2.4688 1.3594-2.7461 1.2344-5.2148 1.3594-7.4297 0.73047-0.37891-0.125-0.75391-0.22656-1.1602-0.40234-0.27734-0.125-0.55469-0.20312-0.83203-0.35156-3.2227-1.7383-5.9961-5.0391-8.5664-8.3398-0.67969-0.88281-1.3594-1.7383-2.0391-2.6211l-0.023437-0.023438c-0.93359-1.2344-1.9141-2.4688-2.8711-3.7266-9.1172-11.789-18.188-23.578-27.305-35.418-10.352-13.402-20.68-26.801-31.035-40.203-0.73047-1.082-1.3867-2.1914-1.8906-3.3242 0.52734 1.1836 1.1836 2.3438 1.9648 3.4766 10.352 13.402 20.68 26.801 31.035 40.203 9.0938 11.766 18.188 23.555 27.281 35.316 0.98438 1.2344 1.9141 2.4922 2.8711 3.7266l0.023437 0.023438c0.67969 0.88281 1.3594 1.7383 2.0391 2.6211 2.5703 3.3242 5.3164 6.625 8.5664 8.3398 0.27734 0.15234 0.55469 0.22656 0.83203 0.35156 0.37891 0.15234 0.75391 0.30078 1.1602 0.40234 2.2422 0.65625 4.7109 0.50391 7.4297-0.73047 0.80469-0.37891 1.6133-0.75391 2.4688-1.3594 0-0.023438 0.023438-0.023438 0.023438-0.023438 5.1875-4.0039 4.5352-9.3711 1.8633-14.688 2.6172 5.3164 3.2227 10.68-1.9141 14.637z"></path>
  <path d="m396.35 223.87c9.2188 4.7617 17.684 10.832 25.141 17.938-7.457-7.1055-15.922-13.152-25.141-17.938z"></path>
  <path d="m449.93 286.72c-5.5938-17.18-15.492-32.598-28.414-44.914 12.898 12.316 22.82 27.758 28.414 44.914z"></path>
  <path d="m468.49 457.94c-1.5117-1.6641-3.4023-2.7969-5.3906-3.4258 2.0156 0.62891 3.8789 1.7617 5.3906 3.4258z"></path>
  <path d="m454.76 311.43c0.10156 1.4102 0.17578 2.7969 0.22656 4.207-0.050781-1.4102-0.125-2.7969-0.22656-4.207z"></path>
  <path d="m449.93 286.72c0.42969 1.3086 0.83203 2.6445 1.2109 3.9805-0.37891-1.3125-0.78125-2.6484-1.2109-3.9805z"></path>
  <path d="m340.09 403.7c-0.10156 0-0.17578-0.023437-0.27734-0.023437 0.10156 0.023437 0.17969 0.023437 0.27734 0.023437z"></path>
  <path d="m468.52 457.96c2.6719 3.4766 5.3672 6.9766 8.0352 10.43-2.668-3.5-5.3633-6.9531-8.0352-10.43z"></path>
  <path d="m336.97 403.38c-0.67969-0.074219-1.3359-0.17578-2.0156-0.27734 0.65625 0.074219 1.3359 0.17578 2.0156 0.27734z"></path>
  <path d="m424.28 435.92c-1.7891-8.4883 4.3594-13.125 10.906-13.047-6.5508-0.10156-12.723 4.5352-10.934 13.047 1.4375 6.9023 9.5469 14.309 13.629 19.598 0.98438 1.2578 1.9141 2.4922 2.8711 3.7266v-0.023438c-0.95703-1.2344-1.8906-2.4453-2.8203-3.6797-4.1055-5.3164-12.215-12.719-13.652-19.621z"></path>
  <path d="m332.06 402.57c-1.0312-0.20312-2.0898-0.42969-3.125-0.65625 1.0352 0.25391 2.0938 0.48047 3.125 0.65625z"></path>
  <path d="m320.75 399.62c-0.65625-0.22656-1.3086-0.45312-1.9648-0.67969 0.65234 0.22656 1.3086 0.45312 1.9648 0.67969z"></path>
  <path d="m429.2 298.78c-6.6992-25.746-25.52-47.637-50.809-57.711 25.289 10.078 44.105 31.992 50.809 57.711z"></path>
  <path d="m334.96 403.07c-0.95703-0.15234-1.9414-0.30078-2.8984-0.50391 0.95703 0.20312 1.9414 0.35547 2.8984 0.50391z"></path>
  <path d="m348.16 235.25c-24.207-0.10156-48.215 10.152-64.438 28.867 16.25-18.742 40.23-28.969 64.438-28.867z"></path>
  <path d="m315.28 397.58c-0.83203-0.35156-1.6641-0.70703-2.4688-1.082 0.80859 0.375 1.6406 0.72656 2.4688 1.082z"></path>
  <path d="m262.16 385.39c-26.398-35.418-29.875-83.555-6.75-121.7 18.465-30.48 51.387-49.422 86.102-51.488-34.738 2.0664-67.66 21.008-86.152 51.488-23.125 38.113-19.672 86.254 6.75 121.67 21.16 26.551 53.125 41.641 85.723 41.766-32.547-0.125-64.512-15.215-85.672-41.742z"></path>
  <path d="m280.9 371.68c-0.125-0.15234-0.15234-0.35156-0.27734-0.50391-0.15234-0.15234-0.30078-0.20313-0.45312-0.37891 0 0 0-0.023437-0.023438-0.023437 0 0 0 0.023437 0.023438 0.023437 0.125 0.17578 0.30078 0.22656 0.45312 0.37891 0.10156 0.17578 0.125 0.35547 0.27734 0.50391 2.7188 3.4492 5.668 6.625 8.8438 9.5742-3.1758-2.9492-6.1484-6.1484-8.8438-9.5742z"></path>
  <path d="m343.14 403.95c-1.0312-0.050781-2.0391-0.125-3.0742-0.22656 1.0312 0.074219 2.0664 0.15234 3.0742 0.22656z"></path>
  <path d="m339.82 403.68c-0.95703-0.10156-1.9141-0.20312-2.8477-0.32812 0.92969 0.15234 1.8867 0.25391 2.8477 0.32812z"></path>
  <path d="m317.85 398.59c-0.85547-0.32813-1.7148-0.65625-2.5703-1.0078 0.85938 0.35547 1.7148 0.68359 2.5703 1.0078z"></path>
  <path d="m303.87 391.84c-1.3867-0.83203-2.7188-1.6875-4.0547-2.5938 1.3359 0.90625 2.668 1.7617 4.0547 2.5938z"></path>
  <path d="m263.16 320.4c-0.17578-19.852 6.5-39.727 19.926-55.57-13.426 15.844-20.102 35.719-19.926 55.57z"></path>
  <path d="m458.74 482.55c-2.543-3.3242-5.1133-6.625-7.6562-9.9258 2.543 3.3281 5.1133 6.6523 7.6562 9.9258z"></path>
  <path d="m431.84 322.34c0.023437-1.1094 0.050781-2.2148 0.050781-3.3242 0 1.082 0 2.1914-0.050781 3.3008-1.2109 35.293-24.789 66.703-58.34 77.711-2.0898 0.67969-4.207 1.2852-6.3242 1.7891 2.1172-0.50391 4.2305-1.1094 6.3242-1.7891 33.551-11.008 57.129-42.422 58.34-77.688z"></path>
  <path d="m458.62 445.09c-2.5938-3.3516-5.1641-6.6992-7.7578-10.051-2.0391-2.6211-3.9062-5.4922-6.1211-7.9336-2.5703-2.7969-6.1211-4.1797-9.5469-4.2305 3.4258 0.050781 6.9766 1.4102 9.5234 4.2305 2.2422 2.4453 4.1055 5.3164 6.1211 7.9336 2.5938 3.3516 5.1641 6.6992 7.7578 10.051-1.0586 0.050781-2.1406 0.125-3.3008 0.37891-8.0352 1.7891-12.848 7.2812-14.508 13.754 0.023438 0.023438 0.023438 0.050782 0.050782 0.074219 1.6133-6.5234 6.4492-12.016 14.484-13.805 1.1289-0.27734 2.2383-0.32813 3.2969-0.40234z"></path>
  <path d="m463.68 323.52c1.7148-48.34-28.012-93.656-72.773-111.8-45.344-18.363-98.949-5.5938-131.17 31.262-36.148 41.438-37.785 103.56-4.8125 147.29 0.125 0.17578 0.30078 0.22656 0.40234 0.37891 0.074219 0.17578 0.125 0.35156 0.27734 0.50391 29.852 37.836 80.988 54.16 127.14 39.371 46.477-14.887 79.25-58.312 80.938-107.01zm-68.77 92.754c-15.039 7.457-31.109 10.957-47.055 10.883-32.598-0.15234-64.59-15.242-85.723-41.766-26.426-35.418-29.902-83.559-6.75-121.67 18.488-30.48 51.414-49.422 86.152-51.488 9.7227-0.57812 19.598 0.17578 29.32 2.3438 8.9688 2.0156 17.508 5.1641 25.492 9.2969 9.2188 4.7617 17.684 10.832 25.141 17.938 12.922 12.316 22.824 27.734 28.414 44.914 0.42969 1.3086 0.83203 2.6445 1.2109 3.9805 1.5117 5.3672 2.6211 10.883 3.25 16.5 0.15234 1.4102 0.27734 2.7969 0.40234 4.207 0.10156 1.4102 0.17578 2.7969 0.22656 4.207 1.3828 41.934-22.172 81.836-60.082 100.66z"></path>
  <path d="m468.52 457.96v0c-0.023437-0.023438-0.023437-0.023438-0.023437-0.023438 0.023437 0 0.023437 0 0.023437 0.023438v0z"></path>
  <path d="m463.12 454.51c-5.9688-1.8633-12.973 0.90625-14.535 8.0117-0.15234 0.65625-0.22656 1.3086-0.22656 1.9414 0-0.65625 0.074219-1.2852 0.22656-1.9414 1.5625-7.082 8.5664-9.875 14.535-8.0117z"></path>
  <path d="m466.98 484.66c2.8711-8.3867 13.703-9.7227 19.422-3.5273 0.48047 0.50391 0.85547 1.082 1.2578 1.6367 10.934 14.156 21.867 28.34 32.797 42.496 3.6797 4.7617 7.3555 9.5234 11.035 14.281 1.8398 2.3672 3.6523 4.7344 5.4922 7.1055-1.8398-2.3945-3.6797-4.7852-5.5156-7.1797-3.6797-4.7617-7.3555-9.5234-11.035-14.281-10.934-14.156-21.867-28.34-32.797-42.496-0.40234-0.55469-0.78125-1.1602-1.2578-1.6367-5.7422-6.1953-16.551-4.8633-19.422 3.5273-1.0312 3.0469-0.60547 5.8203 0.55469 8.3867-1.1602-2.5703-1.5664-5.3164-0.53125-8.3125z"></path>
  <path d="m561.87 564.82c-1.5352-2.2656-3.375-4.3828-5.0625-6.5508-4.8633-6.2969-9.6992-12.543-14.559-18.844-8.2109-10.605-16.375-21.211-24.562-31.84-3.125-4.0312-6.2227-8.0625-9.3203-12.09-16.426-21.285-32.848-42.547-49.246-63.832-6.8281-8.8164-13.25-19.547-26.273-17.938-12.141 1.5117-20.227 13.777-16.75 25.543 1.1836 3.9805 3.5781 6.8516 6.0195 10.027 7.6094 9.875 15.215 19.75 22.871 29.625 9.5469 12.52 19.172 24.988 28.844 37.434 9.6992 12.621 19.496 25.164 29.223 37.734 7.582 9.8477 15.191 19.672 22.773 29.5 0.57812 0.75391 1.1836 1.5352 1.7617 2.293 0.65625 0.83203 1.2578 1.6875 1.9141 2.4922 0.125 0.17578 0.22656 0.32812 0.37891 0.50391 0.73047 0.88281 1.5352 1.6367 2.3438 2.3945 0.023438 0.023437 0.050782 0.050781 0.10156 0.10156 2.9727 2.5938 6.4727 4.2578 10.152 4.8867 0.050781 0 0.125 0.023437 0.17578 0.050781 1.1602 0.17578 2.3164 0.27734 3.4766 0.22656 0.10156 0 0.20313 0.023438 0.30078 0.023438 3.8281-0.125 7.6836-1.2852 11.133-3.7031 0.023438-0.023437 0.023438-0.023437 0.050782-0.050781 1.1602-0.88281 2.1406-1.8633 3.0234-2.8711 0.125-0.125 0.22656-0.22656 0.35156-0.35156 0.60547-0.70703 1.0586-1.4609 1.5352-2.2422 0.15234-0.22656 0.30078-0.45312 0.45312-0.67969 0.023437-0.050781 0.050781-0.125 0.074219-0.15234 0.125-0.20312 0.27734-0.37891 0.35156-0.55469 0.35156-0.67969 0.57812-1.3594 0.83203-2.0664 0.15234-0.37891 0.30078-0.75391 0.40234-1.1602 0.10156-0.27734 0.20312-0.52734 0.27734-0.80469 0.10156-0.35156 0.15234-0.73047 0.20312-1.082 1.1094-5.293 0.125-11.062-3.25-16.023zm-121.04-105.52c-0.023437-0.023437-0.023437-0.050781-0.050781-0.074219v0.023438c-0.98438-1.2344-1.9141-2.4688-2.8711-3.7266-4.082-5.2891-12.191-12.695-13.629-19.598-1.7891-8.5156 4.3828-13.148 10.934-13.047 3.4492 0.050781 7.0039 1.4102 9.5469 4.2305 2.2148 2.4453 4.082 5.3164 6.1211 7.9336 2.5938 3.3516 5.1641 6.6992 7.7578 10.051-1.0586 0.050781-2.1406 0.125-3.3008 0.37891-8.0859 1.8125-12.895 7.3047-14.508 13.828zm17.91 23.277c-2.5703-3.3008-5.1133-6.6016-7.6562-9.9258-1.6133-2.6211-2.7461-5.3672-2.7188-8.1602 0-0.65625 0.074218-1.2852 0.22656-1.9414 1.5625-7.1055 8.5664-9.875 14.535-8.0117 1.9883 0.62891 3.8555 1.7617 5.3906 3.4258l0.023438 0.023437c2.6719 3.4766 5.3672 6.9531 8.0352 10.43l0.023437 0.023438c-1.2852 0.10156-2.6445 0.30078-4.0547 0.67969-7.3555 1.8945-12.039 7.207-13.805 13.457zm94.414 102.8s-0.023438 0-0.023438 0.023438c-0.85547 0.57812-1.6875 0.98437-2.4688 1.3594-2.7461 1.2344-5.2148 1.3867-7.4297 0.73047-0.37891-0.125-0.75391-0.27734-1.1602-0.40234-0.25-0.125-0.55469-0.20313-0.83203-0.35156-3.2227-1.7383-5.9961-5.0391-8.5664-8.3398-0.67969-0.88281-1.3594-1.7383-2.0391-2.6211l-0.023438-0.023438c-0.98438-1.2344-1.9141-2.4922-2.8711-3.7266-9.0938-11.789-18.188-23.578-27.281-35.316-10.352-13.402-20.68-26.801-31.035-40.203-0.75391-1.1328-1.4375-2.293-1.9648-3.4766-1.1602-2.5703-1.5859-5.3398-0.55469-8.3867 2.8711-8.3867 13.703-9.7227 19.422-3.5273 0.48047 0.50391 0.85547 1.082 1.2578 1.6367 10.934 14.156 21.867 28.34 32.797 42.496 3.6797 4.7617 7.3555 9.5234 11.035 14.281 1.8398 2.3945 3.6797 4.7852 5.5156 7.1797 0.22656 0.30078 0.48047 0.60547 0.70703 0.90625 1.8398 2.3672 3.6523 4.7344 5.4922 7.1055 0.30078 0.40234 0.62891 0.80469 0.93359 1.2344 0.48047 0.62891 0.95703 1.2578 1.4375 1.8906 0.30078 0.40234 0.60547 0.80469 0.93359 1.1836 0.70703 0.93359 1.4375 1.8633 2.1406 2.7969 1.8633 2.418 4.2812 5.3164 6.1211 8.3867 0.10156 0.17578 0.17578 0.35156 0.27734 0.55469 2.7148 5.2383 3.3711 10.605-1.8203 14.609z"></path>
  <path d="m346.37 404.05c6.9258 0.125 13.93-0.60547 20.809-2.2656-6.8789 1.6602-13.879 2.3906-20.809 2.2656z"></path>
  <path d="m548.65 561.82c1.8633 2.418 4.2812 5.3164 6.1211 8.3867 0.074219 0.15234 0.17578 0.32812 0.25 0.48047-0.10156-0.17578-0.17578-0.35156-0.27734-0.55469-1.8125-3.0469-4.2578-5.9688-6.1211-8.3867-0.70703-0.93359-1.4375-1.8633-2.1406-2.7969-0.30078-0.40234-0.60547-0.78125-0.93359-1.1836 0.32812 0.40234 0.62891 0.83203 0.95703 1.2344 0.70703 0.98438 1.4375 1.8906 2.1445 2.8203z"></path>
  <path d="m544.11 555.9c-0.30078-0.40234-0.62891-0.80469-0.93359-1.2344-1.8398-2.3672-3.6523-4.7344-5.4922-7.1055 1.8398 2.3945 3.6797 4.7852 5.5156 7.1797 0.30469 0.37891 0.60938 0.78125 0.91016 1.1602z"></path>
  <path d="m325.61 268.45c-0.15234 0.074219-0.40234 0.17578-0.60547 0.25 0.20312-0.046875 0.45703-0.17188 0.60547-0.25z"></path>
  <path d="m335.66 264.93c-0.074218 0.074219-0.17578 0.125-0.27734 0.20312 0.10156-0.074218 0.20313-0.15234 0.27734-0.20312z"></path>
  <path d="m324.93 268.76c0 0.023438-0.023438 0.023438 0 0-0.023438 0.023438 0 0 0 0z"></path>
  <path d="m363.95 245.68c-31.137-7.0273-64.336 6.9766-81.062 34.184 16.727-27.184 49.902-41.215 81.062-34.184z"></path>
  <path d="m431.84 322.31c0.023437-1.1094 0.050781-2.1914 0.050781-3.3008-0.050781-6.9023-0.98438-13.703-2.6719-20.227-6.6992-25.719-25.543-47.637-50.809-57.711-0.023437 0-0.023437-0.023438-0.050781-0.023438-9.7227-3.8789-19.977-5.7695-30.203-5.793-24.184-0.10156-48.188 10.152-64.438 28.867l-0.023438 0.023438c-0.20312 0.22656-0.40234 0.48047-0.60547 0.70703-13.453 15.844-20.129 35.719-19.926 55.57 0.15234 17.758 5.8203 35.52 17.004 50.383 0 0 0 0.023437 0.023437 0.023437 0.15234 0.17578 0.30078 0.22656 0.45312 0.37891 0.125 0.15234 0.15234 0.35156 0.27734 0.50391 2.7188 3.4492 5.668 6.625 8.8438 9.5742 1.9883 1.8398 4.0312 3.5781 6.1719 5.1875 1.2852 0.98438 2.5938 1.9141 3.9062 2.8203 1.3359 0.90625 2.6719 1.7617 4.0547 2.5938 0.45312 0.27734 0.90625 0.55469 1.3867 0.80469 0.93359 0.52734 1.8633 1.0312 2.7969 1.5352 1.5625 0.83203 3.1484 1.5859 4.7617 2.3164 0.83203 0.37891 1.6367 0.73047 2.4688 1.082 0.85547 0.35156 1.7148 0.67969 2.5703 1.0078 0.32813 0.125 0.62891 0.22656 0.95703 0.35156 0.65625 0.22656 1.3086 0.45312 1.9648 0.67969 0.67969 0.22656 1.3594 0.45312 2.0391 0.65625 2.0391 0.62891 4.082 1.1836 6.1445 1.6641 1.0312 0.22656 2.0664 0.45312 3.125 0.65625 0.95703 0.17578 1.9141 0.35156 2.8984 0.50391 0.67969 0.10156 1.3359 0.20312 2.0156 0.27734 0.95703 0.125 1.8906 0.22656 2.8477 0.32812 0.10156 0 0.17578 0.023438 0.27734 0.023438 1.0078 0.10156 2.0391 0.17578 3.0742 0.22656 0.52734 0.023438 1.0586 0.050782 1.5859 0.074219s1.082 0.023437 1.6133 0.050781c6.9258 0.125 13.93-0.60547 20.809-2.2656 2.1172-0.50391 4.2305-1.1094 6.3242-1.7891 33.492-11.059 57.07-42.473 58.281-77.762zm-144.44 43.602c-18.668-25.141-21.086-59.098-4.5078-86.051 16.727-27.207 49.926-41.211 81.062-34.184 31.16 7.0547 55.418 33.781 58.77 65.645 3.3516 31.613-13.629 62.398-42.168 76.453-32.246 15.949-71.039 5.7734-93.156-21.863z"></path>
  <path d="m357.96 265.05c22.57 4.6367 39.953 22.32 44.211 44.965 0.45312 2.3164 3.2227 3.6523 5.3906 3.0469 0.95703-0.25 1.6875-0.78125 2.2148-1.4609 0.78125-1.0586 1.082-2.4688 0.80469-3.8555-4.7617-25.418-24.988-45.871-50.281-51.086-3.25-0.67969-5.4141 2.0156-5.4648 4.5586-0.050781 1.7383 0.88281 3.3789 3.125 3.832z"></path>
  <path d="m360.27 256.69c25.316 5.2148 45.52 25.668 50.281 51.086 0.27734 1.3867-0.023438 2.7969-0.80469 3.8555 0.80469-1.0586 1.1094-2.4922 0.83203-3.9062-4.7852-25.367-25.016-45.848-50.305-51.062-3.2734-0.65625-5.4141 2.0391-5.4648 4.5859 0.042969-2.543 2.1875-5.2422 5.4609-4.5586z"></path>
  <path d="m324.83 268.8s0.023438-0.023438 0.050781-0.023438c-0.050781 0.023438-0.074218 0.023438-0.10156 0.050781 0.023438 0 0.023438 0 0.050781-0.027343z"></path>
  <path d="m287.4 365.91c22.141 27.633 60.938 37.785 93.156 21.867-32.246 15.895-71.039 5.7695-93.156-21.867z"></path>
  <path d="m306.62 271.05c-0.30078 1.0312-0.15234 2.4453 0.45312 3.3516 1.0586 1.6641 3.6289 2.8711 5.543 1.8398 0.125-0.074219 0.25-0.15234 0.37891-0.25 1.6641-1.2578 3.375-2.4688 5.1641-3.5508 1.7383-1.082 3.5508-2.0898 5.4141-2.9961h0.023438c0.023438 0 0.050781-0.023437 0.050781-0.023437 0.40234-0.20312 0.80469-0.37891 1.1836-0.57812 0.023437 0 0.050781-0.023438 0.10156-0.050782 0 0 0.023437 0 0.023437-0.023437h0.023437c0.023438-0.023437 0.050782-0.023437 0.10156-0.050781 0.20312-0.10156 0.45312-0.20312 0.60547-0.25 0.050781-0.023438 0.10156-0.050782 0.125-0.050782 0.88281-0.35156 1.7617-0.70703 2.6719-1.0312 1.9141-0.67969 3.8555-1.2578 5.8438-1.7617 0.40234-0.10156 0.78125-0.27734 1.1328-0.50391 0.10156-0.050782 0.17578-0.125 0.27734-0.20313 0.023437 0 0.023437-0.023437 0.050781-0.023437 1.3359-1.0586 2.0664-2.9219 1.5117-4.5586-0.75391-2.293-2.9961-3.6523-5.3906-3.0469-2.0898 0.52734-4.1797 1.1602-6.1953 1.8906-6.1211 2.2148-11.891 5.3164-17.027 9.2969-1.0078 0.6875-1.7656 1.3672-2.0664 2.5742z"></path>
  <path d="m312.59 276.24c0.15234-0.074219 0.30078-0.17578 0.42969-0.27734 1.6367-1.2578 3.3516-2.4453 5.0898-3.5273-1.7891 1.1094-3.5 2.293-5.1641 3.5508-0.10156 0.10156-0.22656 0.17969-0.35547 0.25391z"></path>
  <path d="m337.22 260.32c0.55469 1.6367-0.17578 3.5-1.5117 4.5586 1.3594-1.0586 2.1172-2.9727 1.5859-4.6367-0.80469-2.2656-3.0469-3.5781-5.4141-2.9961-2.1172 0.52734-4.207 1.1602-6.2734 1.9141 2.0391-0.73047 4.1055-1.3594 6.1953-1.8906 2.4219-0.57422 4.6641 0.75781 5.418 3.0508z"></path>
 </g>

      </g>
      </svg>