<svg xmlns="http://www.w3.org/2000/svg" width="48" height="48" viewBox="0 0 48 48">
  <path fill="#F4F4F4" d="M18,44c-2.2,0-4.3-0.9-5.8-2.5L2,31.2l2.1-2.1c0.6-0.6,1.4-0.9,2.2-0.9 c0.8,0,1.5,0.3,2.1,0.8l5.6,4V10c0-1.7,1.3-3,3-3s3,1.3,3,3v18h2v-4c0-1.7,1.3-3,3-3s3,1.3,3,3v4h2v-2c0-1.7,1.3-3,3-3s3,1.3,3,3v2h2v-2 c0-1.7,1.3-3,3-3s3,1.3,3,3v11c0,6.1-4.9,11-11,11H18z M7.7,30.3l-3.3,3.3l10.2,10.2c0.9,0.9,2.1,1.5,3.4,1.5h15 c4.9,0,9-4.1,9-9v-11c0-0.6-0.4-1-1-1s-1,0.4-1,1v4h-2v-4c0-0.6-0.4-1-1-1s-1,0.4-1,1v4h-2v-6c0-0.6-0.4-1-1-1s-1,0.4-1,1v8h-2v-10 c0-0.6-0.4-1-1-1s-1,0.4-1,1v23h-2V10c0-0.6-0.4-1-1-1s-1,0.4-1,1v24.7l-7.3-5.2C8.6,28.8,8,29,7.7,30.3z"/>
</svg>
