<svg width="610" height="60" viewBox="-5 0 610 60" xmlns="http://www.w3.org/2000/svg">
  <g stroke="black" stroke-width="1.2">
    <line x1="0" y1="0" x2="0" y2="25" stroke-width="1.5"/>
    <text x="0" y="45" font-family="Arial" font-size="12" text-anchor="middle">0</text>
    <line x1="2" y1="0" x2="2" y2="10" stroke-width="0.8"/>
    <line x1="4" y1="0" x2="4" y2="10" stroke-width="0.8"/>
    <line x1="6" y1="0" x2="6" y2="10" stroke-width="0.8"/>
    <line x1="8" y1="0" x2="8" y2="10" stroke-width="0.8"/>
    <line x1="10" y1="0" x2="10" y2="18"/>
    <line x1="12" y1="0" x2="12" y2="10" stroke-width="0.8"/>
    <line x1="14" y1="0" x2="14" y2="10" stroke-width="0.8"/>
    <line x1="16" y1="0" x2="16" y2="10" stroke-width="0.8"/>
    <line x1="18" y1="0" x2="18" y2="10" stroke-width="0.8"/>
    <line x1="20" y1="0" x2="20" y2="25" stroke-width="1.5"/>
    <text x="20" y="45" font-family="Arial" font-size="12" text-anchor="middle">1</text>
    <line x1="22" y1="0" x2="22" y2="10" stroke-width="0.8"/>
    <line x1="24" y1="0" x2="24" y2="10" stroke-width="0.8"/>
    <line x1="26" y1="0" x2="26" y2="10" stroke-width="0.8"/>
    <line x1="28" y1="0" x2="28" y2="10" stroke-width="0.8"/>
    <line x1="30" y1="0" x2="30" y2="18"/>
    <line x1="32" y1="0" x2="32" y2="10" stroke-width="0.8"/>
    <line x1="34" y1="0" x2="34" y2="10" stroke-width="0.8"/>
    <line x1="36" y1="0" x2="36" y2="10" stroke-width="0.8"/>
    <line x1="38" y1="0" x2="38" y2="10" stroke-width="0.8"/>
    <line x1="40" y1="0" x2="40" y2="25" stroke-width="1.5"/>
    <text x="40" y="45" font-family="Arial" font-size="12" text-anchor="middle">2</text>
    <line x1="42" y1="0" x2="42" y2="10" stroke-width="0.8"/>
    <line x1="44" y1="0" x2="44" y2="10" stroke-width="0.8"/>
    <line x1="46" y1="0" x2="46" y2="10" stroke-width="0.8"/>
    <line x1="48" y1="0" x2="48" y2="10" stroke-width="0.8"/>
    <line x1="50" y1="0" x2="50" y2="18"/>
    <line x1="52" y1="0" x2="52" y2="10" stroke-width="0.8"/>
    <line x1="54" y1="0" x2="54" y2="10" stroke-width="0.8"/>
    <line x1="56" y1="0" x2="56" y2="10" stroke-width="0.8"/>
    <line x1="58" y1="0" x2="58" y2="10" stroke-width="0.8"/>
    <line x1="60" y1="0" x2="60" y2="25" stroke-width="1.5"/>
    <text x="60" y="45" font-family="Arial" font-size="12" text-anchor="middle">3</text>
    <line x1="62" y1="0" x2="62" y2="10" stroke-width="0.8"/>
    <line x1="64" y1="0" x2="64" y2="10" stroke-width="0.8"/>
    <line x1="66" y1="0" x2="66" y2="10" stroke-width="0.8"/>
    <line x1="68" y1="0" x2="68" y2="10" stroke-width="0.8"/>
    <line x1="70" y1="0" x2="70" y2="18"/>
    <line x1="72" y1="0" x2="72" y2="10" stroke-width="0.8"/>
    <line x1="74" y1="0" x2="74" y2="10" stroke-width="0.8"/>
    <line x1="76" y1="0" x2="76" y2="10" stroke-width="0.8"/>
    <line x1="78" y1="0" x2="78" y2="10" stroke-width="0.8"/>
    <line x1="80" y1="0" x2="80" y2="25" stroke-width="1.5"/>
    <text x="80" y="45" font-family="Arial" font-size="12" text-anchor="middle">4</text>
    <line x1="82" y1="0" x2="82" y2="10" stroke-width="0.8"/>
    <line x1="84" y1="0" x2="84" y2="10" stroke-width="0.8"/>
    <line x1="86" y1="0" x2="86" y2="10" stroke-width="0.8"/>
    <line x1="88" y1="0" x2="88" y2="10" stroke-width="0.8"/>
    <line x1="90" y1="0" x2="90" y2="18"/>
    <line x1="92" y1="0" x2="92" y2="10" stroke-width="0.8"/>
    <line x1="94" y1="0" x2="94" y2="10" stroke-width="0.8"/>
    <line x1="96" y1="0" x2="96" y2="10" stroke-width="0.8"/>
    <line x1="98" y1="0" x2="98" y2="10" stroke-width="0.8"/>
    <line x1="100" y1="0" x2="100" y2="25" stroke-width="1.5"/>
    <text x="100" y="45" font-family="Arial" font-size="12" text-anchor="middle">5</text>
    <line x1="102" y1="0" x2="102" y2="10" stroke-width="0.8"/>
    <line x1="104" y1="0" x2="104" y2="10" stroke-width="0.8"/>
    <line x1="106" y1="0" x2="106" y2="10" stroke-width="0.8"/>
    <line x1="108" y1="0" x2="108" y2="10" stroke-width="0.8"/>
    <line x1="110" y1="0" x2="110" y2="18"/>
    <line x1="112" y1="0" x2="112" y2="10" stroke-width="0.8"/>
    <line x1="114" y1="0" x2="114" y2="10" stroke-width="0.8"/>
    <line x1="116" y1="0" x2="116" y2="10" stroke-width="0.8"/>
    <line x1="118" y1="0" x2="118" y2="10" stroke-width="0.8"/>
    <line x1="120" y1="0" x2="120" y2="25" stroke-width="1.5"/>
    <text x="120" y="45" font-family="Arial" font-size="12" text-anchor="middle">6</text>
    <line x1="122" y1="0" x2="122" y2="10" stroke-width="0.8"/>
    <line x1="124" y1="0" x2="124" y2="10" stroke-width="0.8"/>
    <line x1="126" y1="0" x2="126" y2="10" stroke-width="0.8"/>
    <line x1="128" y1="0" x2="128" y2="10" stroke-width="0.8"/>
    <line x1="130" y1="0" x2="130" y2="18"/>
    <line x1="132" y1="0" x2="132" y2="10" stroke-width="0.8"/>
    <line x1="134" y1="0" x2="134" y2="10" stroke-width="0.8"/>
    <line x1="136" y1="0" x2="136" y2="10" stroke-width="0.8"/>
    <line x1="138" y1="0" x2="138" y2="10" stroke-width="0.8"/>
    <line x1="140" y1="0" x2="140" y2="25" stroke-width="1.5"/>
    <text x="140" y="45" font-family="Arial" font-size="12" text-anchor="middle">7</text>
    <line x1="142" y1="0" x2="142" y2="10" stroke-width="0.8"/>
    <line x1="144" y1="0" x2="144" y2="10" stroke-width="0.8"/>
    <line x1="146" y1="0" x2="146" y2="10" stroke-width="0.8"/>
    <line x1="148" y1="0" x2="148" y2="10" stroke-width="0.8"/>
    <line x1="150" y1="0" x2="150" y2="18"/>
    <line x1="152" y1="0" x2="152" y2="10" stroke-width="0.8"/>
    <line x1="154" y1="0" x2="154" y2="10" stroke-width="0.8"/>
    <line x1="156" y1="0" x2="156" y2="10" stroke-width="0.8"/>
    <line x1="158" y1="0" x2="158" y2="10" stroke-width="0.8"/>
    <line x1="160" y1="0" x2="160" y2="25" stroke-width="1.5"/>
    <text x="160" y="45" font-family="Arial" font-size="12" text-anchor="middle">8</text>
    <line x1="162" y1="0" x2="162" y2="10" stroke-width="0.8"/>
    <line x1="164" y1="0" x2="164" y2="10" stroke-width="0.8"/>
    <line x1="166" y1="0" x2="166" y2="10" stroke-width="0.8"/>
    <line x1="168" y1="0" x2="168" y2="10" stroke-width="0.8"/>
    <line x1="170" y1="0" x2="170" y2="18"/>
    <line x1="172" y1="0" x2="172" y2="10" stroke-width="0.8"/>
    <line x1="174" y1="0" x2="174" y2="10" stroke-width="0.8"/>
    <line x1="176" y1="0" x2="176" y2="10" stroke-width="0.8"/>
    <line x1="178" y1="0" x2="178" y2="10" stroke-width="0.8"/>
    <line x1="180" y1="0" x2="180" y2="25" stroke-width="1.5"/>
    <text x="180" y="45" font-family="Arial" font-size="12" text-anchor="middle">9</text>
    <line x1="182" y1="0" x2="182" y2="10" stroke-width="0.8"/>
    <line x1="184" y1="0" x2="184" y2="10" stroke-width="0.8"/>
    <line x1="186" y1="0" x2="186" y2="10" stroke-width="0.8"/>
    <line x1="188" y1="0" x2="188" y2="10" stroke-width="0.8"/>
    <line x1="190" y1="0" x2="190" y2="18"/>
    <line x1="192" y1="0" x2="192" y2="10" stroke-width="0.8"/>
    <line x1="194" y1="0" x2="194" y2="10" stroke-width="0.8"/>
    <line x1="196" y1="0" x2="196" y2="10" stroke-width="0.8"/>
    <line x1="198" y1="0" x2="198" y2="10" stroke-width="0.8"/>
    <line x1="200" y1="0" x2="200" y2="25" stroke-width="1.5"/>
    <text x="200" y="45" font-family="Arial" font-size="12" text-anchor="middle">10</text>
    <line x1="202" y1="0" x2="202" y2="10" stroke-width="0.8"/>
    <line x1="204" y1="0" x2="204" y2="10" stroke-width="0.8"/>
    <line x1="206" y1="0" x2="206" y2="10" stroke-width="0.8"/>
    <line x1="208" y1="0" x2="208" y2="10" stroke-width="0.8"/>
    <line x1="210" y1="0" x2="210" y2="18"/>
    <line x1="212" y1="0" x2="212" y2="10" stroke-width="0.8"/>
    <line x1="214" y1="0" x2="214" y2="10" stroke-width="0.8"/>
    <line x1="216" y1="0" x2="216" y2="10" stroke-width="0.8"/>
    <line x1="218" y1="0" x2="218" y2="10" stroke-width="0.8"/>
    <line x1="220" y1="0" x2="220" y2="25" stroke-width="1.5"/>
    <text x="220" y="45" font-family="Arial" font-size="12" text-anchor="middle">11</text>
    <line x1="222" y1="0" x2="222" y2="10" stroke-width="0.8"/>
    <line x1="224" y1="0" x2="224" y2="10" stroke-width="0.8"/>
    <line x1="226" y1="0" x2="226" y2="10" stroke-width="0.8"/>
    <line x1="228" y1="0" x2="228" y2="10" stroke-width="0.8"/>
    <line x1="230" y1="0" x2="230" y2="18"/>
    <line x1="232" y1="0" x2="232" y2="10" stroke-width="0.8"/>
    <line x1="234" y1="0" x2="234" y2="10" stroke-width="0.8"/>
    <line x1="236" y1="0" x2="236" y2="10" stroke-width="0.8"/>
    <line x1="238" y1="0" x2="238" y2="10" stroke-width="0.8"/>
    <line x1="240" y1="0" x2="240" y2="25" stroke-width="1.5"/>
    <text x="240" y="45" font-family="Arial" font-size="12" text-anchor="middle">12</text>
    <line x1="242" y1="0" x2="242" y2="10" stroke-width="0.8"/>
    <line x1="244" y1="0" x2="244" y2="10" stroke-width="0.8"/>
    <line x1="246" y1="0" x2="246" y2="10" stroke-width="0.8"/>
    <line x1="248" y1="0" x2="248" y2="10" stroke-width="0.8"/>
    <line x1="250" y1="0" x2="250" y2="18"/>
    <line x1="252" y1="0" x2="252" y2="10" stroke-width="0.8"/>
    <line x1="254" y1="0" x2="254" y2="10" stroke-width="0.8"/>
    <line x1="256" y1="0" x2="256" y2="10" stroke-width="0.8"/>
    <line x1="258" y1="0" x2="258" y2="10" stroke-width="0.8"/>
    <line x1="260" y1="0" x2="260" y2="25" stroke-width="1.5"/>
    <text x="260" y="45" font-family="Arial" font-size="12" text-anchor="middle">13</text>
    <line x1="262" y1="0" x2="262" y2="10" stroke-width="0.8"/>
    <line x1="264" y1="0" x2="264" y2="10" stroke-width="0.8"/>
    <line x1="266" y1="0" x2="266" y2="10" stroke-width="0.8"/>
    <line x1="268" y1="0" x2="268" y2="10" stroke-width="0.8"/>
    <line x1="270" y1="0" x2="270" y2="18"/>
    <line x1="272" y1="0" x2="272" y2="10" stroke-width="0.8"/>
    <line x1="274" y1="0" x2="274" y2="10" stroke-width="0.8"/>
    <line x1="276" y1="0" x2="276" y2="10" stroke-width="0.8"/>
    <line x1="278" y1="0" x2="278" y2="10" stroke-width="0.8"/>
    <line x1="280" y1="0" x2="280" y2="25" stroke-width="1.5"/>
    <text x="280" y="45" font-family="Arial" font-size="12" text-anchor="middle">14</text>
    <line x1="282" y1="0" x2="282" y2="10" stroke-width="0.8"/>
    <line x1="284" y1="0" x2="284" y2="10" stroke-width="0.8"/>
    <line x1="286" y1="0" x2="286" y2="10" stroke-width="0.8"/>
    <line x1="288" y1="0" x2="288" y2="10" stroke-width="0.8"/>
    <line x1="290" y1="0" x2="290" y2="18"/>
    <line x1="292" y1="0" x2="292" y2="10" stroke-width="0.8"/>
    <line x1="294" y1="0" x2="294" y2="10" stroke-width="0.8"/>
    <line x1="296" y1="0" x2="296" y2="10" stroke-width="0.8"/>
    <line x1="298" y1="0" x2="298" y2="10" stroke-width="0.8"/>
    <line x1="300" y1="0" x2="300" y2="25" stroke-width="1.5"/>
    <text x="300" y="45" font-family="Arial" font-size="12" text-anchor="middle">15</text>
    <line x1="302" y1="0" x2="302" y2="10" stroke-width="0.8"/>
    <line x1="304" y1="0" x2="304" y2="10" stroke-width="0.8"/>
    <line x1="306" y1="0" x2="306" y2="10" stroke-width="0.8"/>
    <line x1="308" y1="0" x2="308" y2="10" stroke-width="0.8"/>
    <line x1="310" y1="0" x2="310" y2="18"/>
    <line x1="312" y1="0" x2="312" y2="10" stroke-width="0.8"/>
    <line x1="314" y1="0" x2="314" y2="10" stroke-width="0.8"/>
    <line x1="316" y1="0" x2="316" y2="10" stroke-width="0.8"/>
    <line x1="318" y1="0" x2="318" y2="10" stroke-width="0.8"/>
    <line x1="320" y1="0" x2="320" y2="25" stroke-width="1.5"/>
    <text x="320" y="45" font-family="Arial" font-size="12" text-anchor="middle">16</text>
    <line x1="322" y1="0" x2="322" y2="10" stroke-width="0.8"/>
    <line x1="324" y1="0" x2="324" y2="10" stroke-width="0.8"/>
    <line x1="326" y1="0" x2="326" y2="10" stroke-width="0.8"/>
    <line x1="328" y1="0" x2="328" y2="10" stroke-width="0.8"/>
    <line x1="330" y1="0" x2="330" y2="18"/>
    <line x1="332" y1="0" x2="332" y2="10" stroke-width="0.8"/>
    <line x1="334" y1="0" x2="334" y2="10" stroke-width="0.8"/>
    <line x1="336" y1="0" x2="336" y2="10" stroke-width="0.8"/>
    <line x1="338" y1="0" x2="338" y2="10" stroke-width="0.8"/>
    <line x1="340" y1="0" x2="340" y2="25" stroke-width="1.5"/>
    <text x="340" y="45" font-family="Arial" font-size="12" text-anchor="middle">17</text>
    <line x1="342" y1="0" x2="342" y2="10" stroke-width="0.8"/>
    <line x1="344" y1="0" x2="344" y2="10" stroke-width="0.8"/>
    <line x1="346" y1="0" x2="346" y2="10" stroke-width="0.8"/>
    <line x1="348" y1="0" x2="348" y2="10" stroke-width="0.8"/>
    <line x1="350" y1="0" x2="350" y2="18"/>
    <line x1="352" y1="0" x2="352" y2="10" stroke-width="0.8"/>
    <line x1="354" y1="0" x2="354" y2="10" stroke-width="0.8"/>
    <line x1="356" y1="0" x2="356" y2="10" stroke-width="0.8"/>
    <line x1="358" y1="0" x2="358" y2="10" stroke-width="0.8"/>
    <line x1="360" y1="0" x2="360" y2="25" stroke-width="1.5"/>
    <text x="360" y="45" font-family="Arial" font-size="12" text-anchor="middle">18</text>
    <line x1="362" y1="0" x2="362" y2="10" stroke-width="0.8"/>
    <line x1="364" y1="0" x2="364" y2="10" stroke-width="0.8"/>
    <line x1="366" y1="0" x2="366" y2="10" stroke-width="0.8"/>
    <line x1="368" y1="0" x2="368" y2="10" stroke-width="0.8"/>
    <line x1="370" y1="0" x2="370" y2="18"/>
    <line x1="372" y1="0" x2="372" y2="10" stroke-width="0.8"/>
    <line x1="374" y1="0" x2="374" y2="10" stroke-width="0.8"/>
    <line x1="376" y1="0" x2="376" y2="10" stroke-width="0.8"/>
    <line x1="378" y1="0" x2="378" y2="10" stroke-width="0.8"/>
    <line x1="380" y1="0" x2="380" y2="25" stroke-width="1.5"/>
    <text x="380" y="45" font-family="Arial" font-size="12" text-anchor="middle">19</text>
    <line x1="382" y1="0" x2="382" y2="10" stroke-width="0.8"/>
    <line x1="384" y1="0" x2="384" y2="10" stroke-width="0.8"/>
    <line x1="386" y1="0" x2="386" y2="10" stroke-width="0.8"/>
    <line x1="388" y1="0" x2="388" y2="10" stroke-width="0.8"/>
    <line x1="390" y1="0" x2="390" y2="18"/>
    <line x1="392" y1="0" x2="392" y2="10" stroke-width="0.8"/>
    <line x1="394" y1="0" x2="394" y2="10" stroke-width="0.8"/>
    <line x1="396" y1="0" x2="396" y2="10" stroke-width="0.8"/>
    <line x1="398" y1="0" x2="398" y2="10" stroke-width="0.8"/>
    <line x1="400" y1="0" x2="400" y2="25" stroke-width="1.5"/>
    <text x="400" y="45" font-family="Arial" font-size="12" text-anchor="middle">20</text>
    <line x1="402" y1="0" x2="402" y2="10" stroke-width="0.8"/>
    <line x1="404" y1="0" x2="404" y2="10" stroke-width="0.8"/>
    <line x1="406" y1="0" x2="406" y2="10" stroke-width="0.8"/>
    <line x1="408" y1="0" x2="408" y2="10" stroke-width="0.8"/>
    <line x1="410" y1="0" x2="410" y2="18"/>
    <line x1="412" y1="0" x2="412" y2="10" stroke-width="0.8"/>
    <line x1="414" y1="0" x2="414" y2="10" stroke-width="0.8"/>
    <line x1="416" y1="0" x2="416" y2="10" stroke-width="0.8"/>
    <line x1="418" y1="0" x2="418" y2="10" stroke-width="0.8"/>
    <line x1="420" y1="0" x2="420" y2="25" stroke-width="1.5"/>
    <text x="420" y="45" font-family="Arial" font-size="12" text-anchor="middle">21</text>
    <line x1="422" y1="0" x2="422" y2="10" stroke-width="0.8"/>
    <line x1="424" y1="0" x2="424" y2="10" stroke-width="0.8"/>
    <line x1="426" y1="0" x2="426" y2="10" stroke-width="0.8"/>
    <line x1="428" y1="0" x2="428" y2="10" stroke-width="0.8"/>
    <line x1="430" y1="0" x2="430" y2="18"/>
    <line x1="432" y1="0" x2="432" y2="10" stroke-width="0.8"/>
    <line x1="434" y1="0" x2="434" y2="10" stroke-width="0.8"/>
    <line x1="436" y1="0" x2="436" y2="10" stroke-width="0.8"/>
    <line x1="438" y1="0" x2="438" y2="10" stroke-width="0.8"/>
    <line x1="440" y1="0" x2="440" y2="25" stroke-width="1.5"/>
    <text x="440" y="45" font-family="Arial" font-size="12" text-anchor="middle">22</text>
    <line x1="442" y1="0" x2="442" y2="10" stroke-width="0.8"/>
    <line x1="444" y1="0" x2="444" y2="10" stroke-width="0.8"/>
    <line x1="446" y1="0" x2="446" y2="10" stroke-width="0.8"/>
    <line x1="448" y1="0" x2="448" y2="10" stroke-width="0.8"/>
    <line x1="450" y1="0" x2="450" y2="18"/>
    <line x1="452" y1="0" x2="452" y2="10" stroke-width="0.8"/>
    <line x1="454" y1="0" x2="454" y2="10" stroke-width="0.8"/>
    <line x1="456" y1="0" x2="456" y2="10" stroke-width="0.8"/>
    <line x1="458" y1="0" x2="458" y2="10" stroke-width="0.8"/>
    <line x1="460" y1="0" x2="460" y2="25" stroke-width="1.5"/>
    <text x="460" y="45" font-family="Arial" font-size="12" text-anchor="middle">23</text>
    <line x1="462" y1="0" x2="462" y2="10" stroke-width="0.8"/>
    <line x1="464" y1="0" x2="464" y2="10" stroke-width="0.8"/>
    <line x1="466" y1="0" x2="466" y2="10" stroke-width="0.8"/>
    <line x1="468" y1="0" x2="468" y2="10" stroke-width="0.8"/>
    <line x1="470" y1="0" x2="470" y2="18"/>
    <line x1="472" y1="0" x2="472" y2="10" stroke-width="0.8"/>
    <line x1="474" y1="0" x2="474" y2="10" stroke-width="0.8"/>
    <line x1="476" y1="0" x2="476" y2="10" stroke-width="0.8"/>
    <line x1="478" y1="0" x2="478" y2="10" stroke-width="0.8"/>
    <line x1="480" y1="0" x2="480" y2="25" stroke-width="1.5"/>
    <text x="480" y="45" font-family="Arial" font-size="12" text-anchor="middle">24</text>
    <line x1="482" y1="0" x2="482" y2="10" stroke-width="0.8"/>
    <line x1="484" y1="0" x2="484" y2="10" stroke-width="0.8"/>
    <line x1="486" y1="0" x2="486" y2="10" stroke-width="0.8"/>
    <line x1="488" y1="0" x2="488" y2="10" stroke-width="0.8"/>
    <line x1="490" y1="0" x2="490" y2="18"/>
    <line x1="492" y1="0" x2="492" y2="10" stroke-width="0.8"/>
    <line x1="494" y1="0" x2="494" y2="10" stroke-width="0.8"/>
    <line x1="496" y1="0" x2="496" y2="10" stroke-width="0.8"/>
    <line x1="498" y1="0" x2="498" y2="10" stroke-width="0.8"/>
    <line x1="500" y1="0" x2="500" y2="25" stroke-width="1.5"/>
    <text x="500" y="45" font-family="Arial" font-size="12" text-anchor="middle">25</text>
    <line x1="502" y1="0" x2="502" y2="10" stroke-width="0.8"/>
    <line x1="504" y1="0" x2="504" y2="10" stroke-width="0.8"/>
    <line x1="506" y1="0" x2="506" y2="10" stroke-width="0.8"/>
    <line x1="508" y1="0" x2="508" y2="10" stroke-width="0.8"/>
    <line x1="510" y1="0" x2="510" y2="18"/>
    <line x1="512" y1="0" x2="512" y2="10" stroke-width="0.8"/>
    <line x1="514" y1="0" x2="514" y2="10" stroke-width="0.8"/>
    <line x1="516" y1="0" x2="516" y2="10" stroke-width="0.8"/>
    <line x1="518" y1="0" x2="518" y2="10" stroke-width="0.8"/>
    <line x1="520" y1="0" x2="520" y2="25" stroke-width="1.5"/>
    <text x="520" y="45" font-family="Arial" font-size="12" text-anchor="middle">26</text>
    <line x1="522" y1="0" x2="522" y2="10" stroke-width="0.8"/>
    <line x1="524" y1="0" x2="524" y2="10" stroke-width="0.8"/>
    <line x1="526" y1="0" x2="526" y2="10" stroke-width="0.8"/>
    <line x1="528" y1="0" x2="528" y2="10" stroke-width="0.8"/>
    <line x1="530" y1="0" x2="530" y2="18"/>
    <line x1="532" y1="0" x2="532" y2="10" stroke-width="0.8"/>
    <line x1="534" y1="0" x2="534" y2="10" stroke-width="0.8"/>
    <line x1="536" y1="0" x2="536" y2="10" stroke-width="0.8"/>
    <line x1="538" y1="0" x2="538" y2="10" stroke-width="0.8"/>
    <line x1="540" y1="0" x2="540" y2="25" stroke-width="1.5"/>
    <text x="540" y="45" font-family="Arial" font-size="12" text-anchor="middle">27</text>
    <line x1="542" y1="0" x2="542" y2="10" stroke-width="0.8"/>
    <line x1="544" y1="0" x2="544" y2="10" stroke-width="0.8"/>
    <line x1="546" y1="0" x2="546" y2="10" stroke-width="0.8"/>
    <line x1="548" y1="0" x2="548" y2="10" stroke-width="0.8"/>
    <line x1="550" y1="0" x2="550" y2="18"/>
    <line x1="552" y1="0" x2="552" y2="10" stroke-width="0.8"/>
    <line x1="554" y1="0" x2="554" y2="10" stroke-width="0.8"/>
    <line x1="556" y1="0" x2="556" y2="10" stroke-width="0.8"/>
    <line x1="558" y1="0" x2="558" y2="10" stroke-width="0.8"/>
    <line x1="560" y1="0" x2="560" y2="25" stroke-width="1.5"/>
    <text x="560" y="45" font-family="Arial" font-size="12" text-anchor="middle">28</text>
    <line x1="562" y1="0" x2="562" y2="10" stroke-width="0.8"/>
    <line x1="564" y1="0" x2="564" y2="10" stroke-width="0.8"/>
    <line x1="566" y1="0" x2="566" y2="10" stroke-width="0.8"/>
    <line x1="568" y1="0" x2="568" y2="10" stroke-width="0.8"/>
    <line x1="570" y1="0" x2="570" y2="18"/>
    <line x1="572" y1="0" x2="572" y2="10" stroke-width="0.8"/>
    <line x1="574" y1="0" x2="574" y2="10" stroke-width="0.8"/>
    <line x1="576" y1="0" x2="576" y2="10" stroke-width="0.8"/>
    <line x1="578" y1="0" x2="578" y2="10" stroke-width="0.8"/>
    <line x1="580" y1="0" x2="580" y2="25" stroke-width="1.5"/>
    <text x="580" y="45" font-family="Arial" font-size="12" text-anchor="middle">29</text>
    <line x1="582" y1="0" x2="582" y2="10" stroke-width="0.8"/>
    <line x1="584" y1="0" x2="584" y2="10" stroke-width="0.8"/>
    <line x1="586" y1="0" x2="586" y2="10" stroke-width="0.8"/>
    <line x1="588" y1="0" x2="588" y2="10" stroke-width="0.8"/>
    <line x1="590" y1="0" x2="590" y2="18"/>
    <line x1="592" y1="0" x2="592" y2="10" stroke-width="0.8"/>
    <line x1="594" y1="0" x2="594" y2="10" stroke-width="0.8"/>
    <line x1="596" y1="0" x2="596" y2="10" stroke-width="0.8"/>
    <line x1="598" y1="0" x2="598" y2="10" stroke-width="0.8"/>
    <line x1="600" y1="0" x2="600" y2="25" stroke-width="1.5"/>
    <text x="600" y="45" font-family="Arial" font-size="12" text-anchor="middle">30</text>
    <text x="0" y="57" font-family="Arial" font-size="10" text-anchor="middle">cm</text>
  </g>
</svg>
